<?xml version="1.0" standalone="no"?>
<!DOCTYPE svg PUBLIC "-//W3C//DTD SVG 20010904//EN"
 "http://www.w3.org/TR/2001/REC-SVG-20010904/DTD/svg10.dtd">
<svg version="1.0" xmlns="http://www.w3.org/2000/svg"
 width="1152.000000pt" height="1152.000000pt" viewBox="0 0 1152.000000 1152.000000"
 preserveAspectRatio="xMidYMid meet">
<metadata>
Created by potrace 1.14, written by Peter Selinger 2001-2017
</metadata>
<g transform="translate(0.000000,1152.000000) scale(0.100000,-0.100000)"
fill="#000000" stroke="none">
<path d="M3258 11515 c-2 -2 -25 -6 -53 -9 -83 -11 -176 -35 -260 -67 -85 -32
-218 -99 -223 -111 -2 -5 -8 -8 -13 -8 -22 0 -201 -142 -292 -233 -53 -52 -97
-98 -97 -102 0 -3 -12 -19 -27 -34 -30 -31 -33 -35 -78 -96 -17 -22 -33 -41
-37 -43 -5 -2 -8 -8 -8 -13 0 -5 -15 -30 -34 -56 -44 -62 -137 -217 -160 -268
-11 -22 -27 -52 -38 -67 -11 -16 -17 -28 -14 -28 3 0 -3 -15 -14 -34 -21 -38
-111 -244 -114 -262 -1 -7 -8 -19 -15 -28 -7 -9 -11 -16 -8 -16 3 0 -1 -17 -9
-37 -9 -20 -17 -44 -19 -52 -2 -9 -14 -43 -26 -76 -30 -84 -65 -200 -100 -337
-30 -116 -35 -140 -45 -188 -3 -14 -7 -36 -10 -50 -3 -14 -8 -38 -11 -55 -8
-47 -11 -60 -13 -60 -2 0 -7 -29 -14 -85 -3 -25 -8 -54 -10 -65 -2 -11 -7 -49
-11 -85 -4 -36 -9 -74 -11 -85 -21 -107 -25 -845 -4 -845 3 0 6 -17 6 -37 1
-43 13 -170 19 -193 6 -25 19 -123 19 -152 1 -16 3 -28 6 -28 3 0 7 -12 8 -27
1 -16 4 -39 7 -53 3 -14 10 -50 15 -80 5 -30 15 -80 22 -110 14 -67 15 -69 18
-72 1 -2 3 -12 5 -23 5 -36 12 -68 50 -210 20 -77 38 -147 40 -155 2 -8 18
-62 36 -120 17 -58 32 -109 33 -115 1 -5 4 -14 7 -20 4 -5 16 -41 28 -80 13
-38 27 -79 32 -90 6 -12 11 -27 13 -35 2 -8 6 -24 10 -35 5 -11 12 -33 18 -50
5 -16 14 -39 18 -50 60 -149 110 -283 110 -293 0 -7 5 -12 12 -12 6 0 9 -3 6
-6 -6 -5 1 -23 54 -144 11 -25 27 -61 35 -80 91 -210 263 -562 371 -760 91
-168 206 -369 244 -428 10 -15 25 -41 35 -59 42 -76 197 -313 205 -313 4 0 8
-6 8 -13 0 -8 8 -23 18 -35 9 -11 25 -33 34 -49 29 -47 43 -68 49 -73 3 -3 30
-41 60 -85 67 -100 63 -94 94 -129 14 -16 25 -33 25 -37 0 -4 11 -20 25 -35
14 -15 25 -33 25 -40 0 -8 4 -14 8 -14 5 0 24 -21 42 -48 18 -26 38 -51 44
-57 6 -5 36 -44 67 -85 31 -41 65 -85 75 -97 11 -11 26 -31 34 -43 8 -12 24
-32 35 -44 11 -12 36 -42 55 -66 19 -24 42 -50 50 -59 8 -9 32 -37 52 -61 20
-25 48 -58 63 -75 14 -16 43 -50 64 -75 22 -25 49 -56 61 -70 28 -33 156 -174
199 -219 340 -363 696 -716 1017 -1008 17 -15 56 -50 86 -78 30 -27 85 -77
122 -110 38 -33 86 -76 107 -95 93 -85 358 -314 482 -417 31 -26 57 -51 57
-55 0 -4 6 -8 14 -8 8 0 16 -4 18 -9 2 -5 46 -45 100 -89 127 -105 125 -103
157 -132 15 -14 45 -38 66 -55 22 -16 49 -39 60 -50 11 -11 36 -32 55 -47 19
-14 44 -34 55 -45 11 -10 38 -32 60 -48 37 -28 58 -46 96 -80 9 -8 21 -15 27
-15 7 0 12 -4 12 -8 0 -5 26 -26 58 -47 31 -22 74 -52 95 -68 20 -16 37 -25
37 -20 0 4 4 3 8 -3 9 -15 192 -115 192 -106 0 4 4 2 8 -3 15 -22 188 -71 280
-81 l63 -6 -5 29 c-2 15 -12 53 -21 83 -10 30 -18 60 -20 65 -1 6 -5 17 -8 25
-11 28 -66 234 -106 395 -21 88 -43 174 -47 190 -11 46 -14 58 -18 85 -2 14
-7 41 -10 60 -4 19 -8 42 -10 50 -2 8 -6 26 -9 40 -4 14 -9 43 -11 65 -3 22
-5 40 -6 40 -1 0 -3 14 -5 30 -1 17 -5 46 -8 65 -14 87 -27 204 -33 300 -8
118 -3 545 6 545 1 0 3 16 5 35 6 74 20 184 31 240 3 14 6 34 8 45 2 11 6 34
10 50 7 34 14 67 22 109 2 16 7 33 10 38 3 5 7 19 9 31 1 12 7 40 13 62 6 22
12 45 13 50 1 6 7 26 15 45 8 19 15 44 17 55 1 11 5 25 8 30 4 6 9 22 13 37 3
15 11 40 18 55 6 15 12 33 14 40 1 6 17 49 34 95 18 46 33 88 35 93 1 6 7 21
12 35 95 223 129 302 172 395 28 61 55 117 60 125 5 8 44 85 87 170 43 85 81
157 84 160 3 3 18 28 32 56 14 27 36 68 48 90 91 161 158 277 186 322 19 29
34 55 34 58 0 3 16 29 35 58 19 29 35 58 35 65 0 6 5 11 10 11 6 0 10 4 10 10
0 5 22 44 49 87 27 43 99 161 161 263 62 102 128 208 146 237 19 28 34 56 34
61 0 5 7 16 16 23 9 7 20 22 25 34 5 11 23 43 40 70 16 28 35 60 41 73 6 12
15 22 20 22 4 0 8 9 8 20 0 11 4 20 8 20 4 0 21 25 37 55 17 30 34 55 38 55 5
0 5 5 2 10 -3 6 -1 10 4 10 6 0 10 3 9 8 -1 4 10 26 25 49 15 24 27 45 27 47
0 2 20 38 44 78 24 41 47 84 50 96 4 12 11 22 16 22 5 0 14 17 21 37 6 21 18
44 26 51 7 7 13 19 13 27 0 7 4 15 8 17 5 2 69 127 144 278 158 320 233 485
230 503 -1 4 2 7 7 7 5 0 12 12 15 26 4 14 15 45 26 68 27 58 110 267 115 289
2 10 11 32 20 49 8 17 15 35 15 39 0 4 5 20 12 36 6 15 12 33 14 38 1 6 24 78
52 160 27 83 55 170 62 195 7 25 16 56 21 70 11 33 59 218 65 250 3 14 10 43
15 65 14 57 16 66 23 105 3 19 8 46 11 60 3 14 7 36 10 50 2 14 7 41 11 60 20
107 39 255 52 400 9 109 9 524 0 615 -12 116 -22 188 -33 245 -2 14 -7 37 -9
53 -3 15 -7 35 -10 45 -3 9 -7 28 -10 42 -22 117 -92 326 -154 460 -21 44 -93
173 -101 180 -3 3 -13 17 -21 32 -30 54 -141 185 -222 263 -119 116 -172 157
-343 267 -86 56 -362 176 -445 193 -8 2 -15 4 -15 5 0 1 -7 3 -15 5 -8 1 -33
8 -55 14 -46 12 -175 37 -250 47 -109 15 -516 7 -546 -11 -3 -2 -25 -7 -50
-10 -51 -7 -84 -13 -84 -15 0 -1 -7 -3 -15 -5 -8 -1 -42 -11 -75 -20 -33 -10
-62 -18 -65 -18 -3 0 -29 -10 -57 -23 -29 -12 -53 -21 -53 -19 0 10 -231 -112
-297 -155 -92 -63 -119 -86 -222 -190 -141 -143 -297 -363 -429 -605 -65 -120
-181 -372 -174 -379 3 -3 0 -6 -6 -6 -7 0 -12 -5 -12 -10 0 -6 -7 -27 -16 -48
-10 -20 -18 -44 -20 -52 -2 -8 -8 -23 -14 -35 -9 -17 -86 -231 -94 -260 -1 -5
-16 -55 -34 -110 -28 -91 -52 -175 -58 -200 -1 -5 -7 -30 -14 -55 -7 -25 -14
-56 -16 -70 -3 -14 -7 -32 -10 -40 -5 -14 -19 -82 -30 -140 -2 -14 -7 -36 -11
-50 -3 -14 -7 -36 -9 -50 -1 -14 -4 -38 -7 -55 -22 -133 -25 -159 -34 -265 -9
-104 -9 -422 -1 -507 3 -35 4 -63 2 -63 -4 0 -21 60 -28 100 -2 14 -5 25 -6
25 -1 0 -3 7 -5 15 -1 8 -10 42 -20 75 -9 33 -19 75 -22 93 -3 17 -10 32 -16
32 -6 0 -8 3 -5 6 3 3 -3 38 -14 77 -11 39 -22 78 -23 87 -2 8 -4 16 -5 18 -2
1 -3 5 -4 10 -12 44 -28 100 -33 112 -3 8 -7 20 -8 25 -2 6 -8 30 -16 55 -7
25 -13 50 -15 55 -1 6 -14 46 -28 90 -14 44 -26 83 -27 87 -2 18 -145 433
-170 493 -7 17 -13 35 -14 40 -4 13 -43 114 -55 140 -18 39 -105 250 -105 256
0 9 -238 484 -245 489 -4 3 -15 21 -26 40 -10 19 -21 37 -24 40 -3 3 -10 14
-16 25 -27 50 -40 70 -51 83 -7 7 -13 17 -13 21 0 7 -11 22 -50 68 -5 7 -10
15 -10 19 0 3 -31 47 -70 97 -177 234 -349 400 -550 534 -131 88 -394 200
-515 220 -41 7 -60 11 -60 13 0 2 -33 8 -85 16 -45 6 -317 14 -322 9z"/>
</g>
</svg>
