<svg xmlns="http://www.w3.org/2000/svg" viewBox="0 0 114 162.49"><defs><style>.cls-1{fill:#a3b8c1;}.cls-2{fill:#bfaaaa;}</style></defs><g id="Capa_2" data-name="Capa 2"><g id="OBJECT"><path class="cls-1" d="M110.75,161,2.8,162.49a1.72,1.72,0,0,1-1.75-1.7h0v0L0,53a2.78,2.78,0,0,1,2.75-2.8h0l107.7-.7h.09A3.39,3.39,0,0,1,114,52.91V53l-1.72,54.59C111.69,125.63,111.15,143.38,110.75,161Zm-.5-.49c-.39-18.3-.94-36.44-1.53-54.34L107,53l3.5,3.5L2.8,55.84,5.6,53l-1,107.7L2.8,159C38.26,159.45,74.06,160.11,110.25,160.5Z"/><path class="cls-2" d="M16.07,87.06c4.75,4.26,9.19,8.77,13.55,13.35s8.52,9.33,12.63,14.13c2,2.43,4,4.86,6,7.34s3.9,5,5.83,7.55l2.81,3.89,2.76,4c.92,1.34,1.77,2.78,2.66,4.17s1.71,3,2.57,4.51l-15.12,1.7c2.24-13.17,4.94-26.11,8.14-39S64.72,83,69,70.4c2.13-6.32,4.35-12.6,6.83-18.82s5.07-12.38,8-18.45a167.66,167.66,0,0,1,9.72-17.77,87.88,87.88,0,0,1,6-8.3l1.66-1.95c.54-.65,1.2-1.23,1.79-1.84A29.51,29.51,0,0,1,106.8,0a42.24,42.24,0,0,0-2.35,4.38c-.74,1.45-1.31,3-1.92,4.5s-1.1,3.08-1.66,4.59l-1.51,4.64L98,22.79c-.47,1.55-.87,3.14-1.31,4.71-.89,3.13-1.71,6.28-2.52,9.44s-1.58,6.33-2.41,9.47l-2.34,9.51L84.77,75q-4.62,19-9.41,38.09l-4.87,19-5,19-.12.46a8,8,0,0,1-15,1.24c-.57-1.27-1.06-2.52-1.69-3.83l-2-4-2.07-4-2.18-4c-1.45-2.71-2.91-5.44-4.43-8.14l-4.49-8.18c-3-5.48-6-11-8.91-16.54S18.77,92.84,16.07,87.06Z"/></g></g></svg>