<svg xmlns="http://www.w3.org/2000/svg" viewBox="0 0 114 167.56"><defs><style>.cls-1{fill:#a3b8c1;}.cls-2{fill:#bfaaaa;}</style></defs><g id="Capa_2" data-name="Capa 2"><g id="OBJECT"><path class="cls-1" d="M110.75,166.05,2.8,167.56a1.73,1.73,0,0,1-1.75-1.71h0v0L0,58.1a2.78,2.78,0,0,1,2.75-2.8h0l107.7-.7h.09A3.39,3.39,0,0,1,114,58v.13l-1.72,54.59Q111.4,139.69,110.75,166.05Zm-.5-.49c-.39-18.3-.94-36.44-1.53-54.34L107,58.1l3.5,3.5L2.8,60.9l2.8-2.8-1,107.71L2.8,164.06C38.26,164.52,74.06,165.18,110.25,165.56Z"/><path class="cls-2" d="M10.52,82.47A144,144,0,0,1,26.28,94.61c4.92,4.3,9.57,8.82,14,13.5s8.7,9.59,12.76,14.75l3,3.94L59,130.94c1,1.39,1.9,2.95,2.85,4.43.47.7,1,1.62,1.42,2.46l1.38,2.57-32.09,2c1.14-6.77,2.43-13.26,4-19.79s3.22-13,5.15-19.37,4-12.77,6.29-19.07,4.77-12.55,7.52-18.71S61.18,53.2,64.44,47.2A198.27,198.27,0,0,1,75.13,29.55,138.72,138.72,0,0,1,88.18,13,80.39,80.39,0,0,1,96.09,5.6l2.16-1.67c.71-.54,1.55-1,2.31-1.52A25.44,25.44,0,0,1,105.44,0a67.26,67.26,0,0,0-3,9.75c-.22.78-.36,1.63-.55,2.43l-.55,2.4-1,4.84L96.63,38.67c-1.25,6.38-2.52,12.76-3.88,19.11s-2.83,12.66-4.36,19Q83.77,95.64,78,114.26c-1.89,6.21-4,12.39-6.05,18.55s-4.37,12.34-6.65,18.3l-1.2,3.17a16.32,16.32,0,0,1-30.89-1.16l-.51-1.71c-.19-.59-.28-1.12-.54-1.8l-1.36-3.94-1.51-4.12-1.6-4.23c-2.16-5.68-4.34-11.51-6.44-17.45s-4.13-12-6-18.19A191.86,191.86,0,0,1,10.52,82.47Z"/></g></g></svg>