<svg xmlns="http://www.w3.org/2000/svg" viewBox="0 0 114 145.98"><defs><style>.cls-1{fill:#a3b8c1;}.cls-2{fill:#bfaaaa;}</style></defs><g id="Capa_2" data-name="Capa 2"><g id="OBJECT"><path class="cls-1" d="M110.75,144.48,2.8,146a1.72,1.72,0,0,1-1.75-1.7h0v-.05L0,36.53a2.78,2.78,0,0,1,2.75-2.8h0L110.5,33h.09A3.39,3.39,0,0,1,114,36.4v.13l-1.72,54.59Q111.4,118.12,110.75,144.48Zm-.5-.49c-.39-18.3-.94-36.44-1.53-54.34L107,36.53l3.5,3.5L2.8,39.33l2.8-2.8-1,107.7L2.8,142.48C38.26,142.94,74.06,143.6,110.25,144Z"/><path class="cls-2" d="M12.91,70.92C8.53,60.64,5.46,49.72,5.38,38.57c-.11-15.68,9.78-45.73,31.4-37C51.48,7.49,57.9,33,61.45,46.54c-3-11.36,5.12-35.73,14.81-41.89,11.82-7.51,29.26-2.54,34.36,10.67,7,18-3.72,42-12.82,57.39-6.67,11.23-14.25,22.08-18.51,34.43-4.68,13.57-2.42,24.07,1.5,37.09-4.92,0-9.73-4.35-13.4-7.4-21.79-18.08-40.53-35.7-52.71-61.94C14.07,73.58,13.48,72.26,12.91,70.92Z"/></g></g></svg>