<svg xmlns="http://www.w3.org/2000/svg" viewBox="0 0 114 112.95"><defs><style>.cls-1{fill:#a3b8c1;}</style></defs><g id="Capa_2" data-name="Capa 2"><g id="OBJECT"><path class="cls-1" d="M110.75,111.45,2.8,113a1.72,1.72,0,0,1-1.75-1.7h0v0L0,3.5A2.78,2.78,0,0,1,2.75.7h0L110.5,0h.09A3.39,3.39,0,0,1,114,3.37V3.5l-1.72,54.59C111.69,76.09,111.15,93.84,110.75,111.45Zm-.5-.49c-.39-18.3-.94-36.44-1.53-54.35L107,3.5,110.5,7,2.8,6.3,5.6,3.5l-1,107.7L2.8,109.45C38.26,109.91,74.06,110.57,110.25,111Z"/></g></g></svg>