<svg xmlns="http://www.w3.org/2000/svg" viewBox="0 0 491.31 41.49"><defs><style>.cls-1{fill:#bfaaaa;}</style></defs><g id="Capa_2" data-name="Capa 2"><g id="OBJECT"><path class="cls-1" d="M249.52,28.59s.21.14.6.43,1,.71,1.77,1.26a77.57,77.57,0,0,0,7.05,4.42,51.64,51.64,0,0,0,5.4,2.61q1.52.63,3.21,1.2c1.13.36,2.31.71,3.55,1s2.54.53,3.89.71a40.09,40.09,0,0,0,4.19.3c.36,0,.72,0,1.08,0l1.11,0,1.11-.06c.38,0,.76-.06,1.13-.09a42.8,42.8,0,0,0,4.64-.66,32.89,32.89,0,0,0,4.7-1.29,25,25,0,0,0,4.58-2.14,21.84,21.84,0,0,0,2.14-1.46,21.51,21.51,0,0,0,2-1.75,16.24,16.24,0,0,0,3-4.4A15.14,15.14,0,0,0,306,23.35c0-.23,0-.47,0-.7s0-.47,0-.71v-.36c0-.11,0-.23,0-.35s0-.47-.05-.7a16.61,16.61,0,0,0-.56-2.79,14.5,14.5,0,0,0-2.81-5,18.37,18.37,0,0,0-2.12-2.11A22.24,22.24,0,0,0,298,8.8a26.64,26.64,0,0,0-5.67-2.63,27.6,27.6,0,0,0-6.26-1.34,32.73,32.73,0,0,0-6.56.08A37.67,37.67,0,0,0,273,6.33a64.64,64.64,0,0,0-12.66,5.84c-4.14,2.37-8.24,5-12.53,7.54l-3.2,1.85c-1.05.61-2.1,1.24-3.15,1.86-2.09,1.24-4.18,2.49-6.27,3.7a138.39,138.39,0,0,1-12.67,6.67c-2.14,1-4.32,1.85-6.52,2.6a48.35,48.35,0,0,1-6.7,1.78,33.45,33.45,0,0,1-6.82.59l-.85,0-.85-.06-.42,0h-.21l-.21,0-.84-.12-.42,0-.41-.08-.83-.17c-.55-.09-1.08-.25-1.62-.39s-1.06-.34-1.59-.51l-.39-.14-.39-.16-.76-.33c-.26-.1-.5-.24-.75-.36l-.74-.39c-.24-.13-.47-.29-.7-.43l-.35-.22-.18-.11-.17-.13-.66-.49c-.11-.09-.22-.16-.32-.25l-.31-.28-.62-.54-.57-.6-.28-.29-.26-.32-.51-.64c-.16-.22-.31-.44-.46-.67l-.23-.33c-.07-.12-.13-.24-.2-.35l-.39-.71c-.13-.23-.23-.48-.35-.72l-.16-.36a2.92,2.92,0,0,1-.14-.38c-.1-.25-.19-.49-.28-.74s-.15-.51-.22-.76l-.11-.38c0-.12-.06-.25-.08-.38l-.16-.77c-.05-.25-.08-.51-.11-.76l-.06-.39,0-.38c0-.26,0-.51-.05-.77s0-.51,0-.76,0-.51,0-.76,0-.51,0-.76.06-.5.08-.74l0-.38,0-.18,0-.19c0-.24.09-.48.13-.73a19.53,19.53,0,0,1,5.2-10,29.92,29.92,0,0,1,4.11-3.36c.36-.24.72-.49,1.08-.71l1.11-.64c.74-.39,1.48-.78,2.25-1.11A26.72,26.72,0,0,1,201.88.86c.38-.11.76-.18,1.14-.26s.75-.16,1.13-.21l1.12-.17,1.12-.11c.37,0,.73-.06,1.1-.07L208,0h1.88l.26,0,.53,0,.51,0h.26l.26,0,1,.11c.34,0,.66.1,1,.15l1,.16a33.69,33.69,0,0,1,6.9,2.14A38,38,0,0,1,227,5.52a42.24,42.24,0,0,1,6.53,5.2c.7.65,1.19,1.19,1.53,1.54l.51.54-.53-.52c-.35-.34-.86-.86-1.58-1.49a43.32,43.32,0,0,0-6.65-5,38.41,38.41,0,0,0-5.37-2.64,34,34,0,0,0-6.82-1.92l-1-.13c-.32,0-.64-.1-1-.12l-1-.08-.25,0h-.25l-.5,0-.51,0h-.52l-1,0-.53,0-.53,0c-.35,0-.71,0-1.06.09l-1.08.13-1.08.19c-.36.06-.72.15-1.09.23s-.73.16-1.09.28a26.26,26.26,0,0,0-4.35,1.6,27.66,27.66,0,0,0-8.06,5.73c-.28.31-.58.61-.84,1l-.4.5-.38.53-.19.27-.17.27-.35.56c-.11.18-.21.38-.31.57a6.63,6.63,0,0,0-.31.59c-.19.4-.39.79-.55,1.21-.08.21-.17.41-.25.62l-.21.64-.11.32-.09.33c-.06.22-.12.43-.19.65s-.09.44-.14.67-.11.44-.14.67-.07.45-.11.68l0,.16,0,.18,0,.34c0,.23,0,.46-.06.69s0,.46,0,.69a5.3,5.3,0,0,0,0,.69c0,.24,0,.47,0,.7l.06.7c0,.11,0,.23,0,.34l.06.35c0,.23.06.46.11.69l.15.69c0,.11.05.23.08.34l.11.34c.07.22.13.45.2.67l.26.66c0,.11.08.22.13.33l.15.32c.11.21.21.43.32.64l.35.61c.07.1.12.21.19.31l.2.29c.14.19.27.39.42.59l.45.55.24.27.25.26.51.52.55.47.27.24.3.22.59.43.15.11.16.09.32.2c.21.12.41.26.63.38l.67.33a4.22,4.22,0,0,0,.68.32l.7.29.35.15.36.11a14.51,14.51,0,0,0,1.46.45,15.06,15.06,0,0,0,1.51.35l.76.15.39.06.38,0,.78.1.19,0,.2,0,.39,0,.79,0h.79a32.5,32.5,0,0,0,6.4-.62,46.9,46.9,0,0,0,6.4-1.77c2.12-.74,4.22-1.61,6.31-2.57,4.18-1.92,8.3-4.2,12.44-6.62,2.07-1.21,4.14-2.46,6.24-3.71,1-.63,2.1-1.26,3.16-1.88l3.2-1.85c4.23-2.48,8.34-5.13,12.56-7.53a65.62,65.62,0,0,1,13.13-6,39.26,39.26,0,0,1,7-1.45,34.13,34.13,0,0,1,7,0,29.9,29.9,0,0,1,6.7,1.5,28.36,28.36,0,0,1,6.05,2.91,22.78,22.78,0,0,1,2.67,2A19.07,19.07,0,0,1,304,11.52a15.42,15.42,0,0,1,1.83,2.72,16.14,16.14,0,0,1,1.24,3,16.35,16.35,0,0,1,.58,3.14c0,.26,0,.52.05.78s0,.27,0,.4v.39c0,.26,0,.51,0,.77s0,.52-.05.78a16.86,16.86,0,0,1-1.61,5.84,17.35,17.35,0,0,1-3.4,4.75,19.61,19.61,0,0,1-2.14,1.84,22.28,22.28,0,0,1-2.3,1.52,27,27,0,0,1-4.86,2.15,33.27,33.27,0,0,1-4.91,1.23,44.49,44.49,0,0,1-4.75.57c-.39,0-.78.06-1.16.07l-1.15,0h-1.13l-1.11,0a41.1,41.1,0,0,1-4.28-.42c-1.37-.22-2.69-.5-3.94-.82s-2.45-.71-3.59-1.11-2.2-.85-3.21-1.3A54.12,54.12,0,0,1,258.76,35a76.53,76.53,0,0,1-6.93-4.65c-.76-.57-1.34-1-1.72-1.32Z"/><path class="cls-1" d="M273.28,13.52l-.55.09c-.18,0-.4.05-.66.1l-.89.17a34.75,34.75,0,0,0-5.54,1.59A55.56,55.56,0,0,0,258,19.12c-2.79,1.57-5.78,3.46-9,5.43-1.59,1-3.16,1.94-4.72,2.82-.77.44-1.54.86-2.3,1.26l-2.18,1.16c-2.83,1.54-5.37,3-7.57,4.15l-.8.42-.77.38-1.41.69c-.9.4-1.67.75-2.31,1l-2,.76s.65-.39,1.84-1.07c.59-.36,1.3-.82,2.12-1.33l1.3-.86.71-.47.74-.51L235,30.69l1.86-1.26,2-1.3L241,26.82l2.21-1.33,4.63-2.88a100,100,0,0,1,9.28-5.2,43.13,43.13,0,0,1,8.22-3,29,29,0,0,1,5.82-.86l.92,0h1.23Z"/><path class="cls-1" d="M267.64,5.6l-.55.09c-.18,0-.4,0-.66.1l-.9.17A35,35,0,0,0,260,7.55a55.56,55.56,0,0,0-7.67,3.65c-2.79,1.57-5.78,3.46-9,5.43-1.59,1-3.17,1.94-4.72,2.82-.77.44-1.54.86-2.3,1.26l-2.18,1.16c-2.83,1.54-5.37,3-7.57,4.15l-.8.42-.77.38-1.41.69c-.9.4-1.67.75-2.31,1l-2,.76s.65-.39,1.84-1.07c.59-.36,1.29-.82,2.12-1.33l1.3-.86.71-.47L226,25l3.31-2.27c.6-.4,1.21-.83,1.86-1.26l2-1.3,2.15-1.31c.72-.43,1.46-.87,2.2-1.33l4.64-2.88a100,100,0,0,1,9.28-5.2,43.13,43.13,0,0,1,8.22-3,29,29,0,0,1,5.82-.86l.92,0h1.23Z"/><path class="cls-1" d="M491.31,23.31s-2.63-14.3-20.6.08C470.71,23.39,487.65,37.92,491.31,23.31Zm-4.13.08a.69.69,0,0,1-1.37,0,.69.69,0,0,1,.69-.69A.68.68,0,0,1,487.18,23.39Zm-12,0s1.16-4.3,9.4,0C484.57,23.38,476.88,27.8,475.17,23.42Z"/><path class="cls-1" d="M469.38,25.36a1.9,1.9,0,0,1-1.9-1.89h0a1.89,1.89,0,0,1,1.89-1.9h0a1.89,1.89,0,0,1,1.9,1.88h0a1.91,1.91,0,0,1-1.89,1.91Z"/><path class="cls-1" d="M454.83,25.41a1.89,1.89,0,0,1-1.9-1.88h0a1.89,1.89,0,0,1,1.89-1.9h0a1.89,1.89,0,0,1,1.9,1.88h0a1.89,1.89,0,0,1-1.89,1.9Z"/><path class="cls-1" d="M462.1,28.51s6.48-5,6.42-5-6.46-5-6.46-5c-.76,1.65-6.46,5-6.45,5.05S461.33,26.87,462.1,28.51Z"/><path class="cls-1" d="M293.14,23.44c-11.7-9.37-13.41-.06-13.41-.06C282.11,32.9,293.14,23.44,293.14,23.44ZM282.86,23a.45.45,0,0,1,.45.45.45.45,0,0,1-.89,0A.45.45,0,0,1,282.86,23Zm1.26.44c5.37-2.78,6.12,0,6.12,0C289.12,26.31,284.12,23.43,284.12,23.43Z"/><path class="cls-1" d="M294,24.72a1.24,1.24,0,0,0,1.24-1.23h0A1.24,1.24,0,0,0,294,22.25h0a1.24,1.24,0,0,0-1.24,1.23h0A1.24,1.24,0,0,0,294,24.72Z"/><rect class="cls-1" x="295.25" y="22.85" width="159.58" height="1.34"/><path class="cls-1" d="M20.6,23.39C2.63,9,0,23.31,0,23.31,3.66,37.92,20.6,23.39,20.6,23.39ZM4.82,22.71a.69.69,0,1,1-.69.68A.68.68,0,0,1,4.82,22.71Zm1.92.67c8.25-4.26,9.41,0,9.41,0C14.43,27.8,6.74,23.38,6.74,23.38Z"/><path class="cls-1" d="M21.93,25.36a1.89,1.89,0,0,0,1.9-1.89h0A1.88,1.88,0,0,0,22,21.57h0a1.88,1.88,0,0,0-1.9,1.88h0a1.9,1.9,0,0,0,1.88,1.91Z"/><path class="cls-1" d="M36.48,25.41a1.88,1.88,0,0,0,1.9-1.88h0a1.88,1.88,0,0,0-1.88-1.9h0a1.9,1.9,0,0,0-1.91,1.88h0a1.89,1.89,0,0,0,1.89,1.9Z"/><path class="cls-1" d="M29.22,28.51s-6.48-5-6.43-5,6.47-5,6.47-5c.75,1.65,6.46,5,6.44,5.05S30,26.87,29.22,28.51Z"/><path class="cls-1" d="M211.59,23.38s-1.71-9.31-13.42.06C198.17,23.44,209.21,32.9,211.59,23.38Zm-2.69.06a.45.45,0,0,1-.45.44.43.43,0,0,1-.44-.44.44.44,0,0,1,.44-.45A.45.45,0,0,1,208.9,23.44Zm-7.83,0s.76-2.8,6.13,0C207.2,23.43,202.19,26.31,201.07,23.45Z"/><path class="cls-1" d="M197.31,24.72a1.24,1.24,0,0,1-1.24-1.23h0a1.24,1.24,0,0,1,1.23-1.24h0a1.23,1.23,0,0,1,1.23,1.23h0a1.23,1.23,0,0,1-1.22,1.24Z"/><rect class="cls-1" x="36.49" y="22.85" width="159.58" height="1.34"/></g></g></svg>